<svg height="20" viewBox="0 0 20 20" width="20" xmlns="http://www.w3.org/2000/svg"><path d="m1.38197865 8.50468479v5.05849251c0 2.7931406 2.26399307 5.0575208 5.05677618 5.0575208h3.67771257c2.7927641 0 5.0567267-2.2643132 5.0567267-5.057448v-5.05754846zm10.50518835-8.3435581c.2918648.2446711.3301501.67965186.0855126.97155673-.6418022.76580712-.783315 1.28699612-.5852585 1.63725836.0614501.10867432.5929148.94851743.7145487 1.20659757.2758249.58523942.3121385 1.15278276.0735723 1.82242341-.165918.4657216-.4169978.90824504-.7506481 1.32761505l3.881232-.00016829c.4368806.01620114.7537864.12799557.9507172.33538329.1086663.11443641.1873722.25838421.2360949.43184342l.05928-.00159931c1.9041574 0 3.4477819 1.54383626 3.4477819 3.44825478 0 1.9044186-1.5436245 3.4482548-3.4477819 3.4482548l-.1156538-.0037672c-.5706215 2.9707652-3.1832745 5.2152207-6.3200915 5.2152207h-3.67774811c-3.5544187 0-6.43583811-2.8819164-6.43583811-6.4368227l-.00002136-5.22644509c-.01965942-.43286177.06184953-.73932499.24452684-.91938965.1826773-.18006466.45216494-.27704234.80846292-.29093304l2.95327598.0002951c.03745991-.06215605.08544566-.11941061.1437398-.16905293.60878485-.51843102 1.00668337-1.05905394 1.20710932-1.62163726.1136736-.31907481.10148944-.50950046-.02193353-.77137665-.07814643-.16580942-.56896411-.94142034-.66752022-1.11571652-.53836847-.95210301-.24187304-2.0440902.72876619-3.20227026.24463754-.29190487.67955865-.33019541.97142348-.08552431.29186484.2446711.33015013.67965186.08551259.97155673-.64180214.76580712-.78331493 1.28699612-.58525848 1.63725836.0614501.10867432.59291483.94851743.71454871 1.20659757.27582495.58523942.31213853 1.15278276.07357233 1.82242341-.16591798.4657216-.41699778.90824504-.75064809 1.32761505l.85891339.00012681c.03745991-.06215605.08544565-.11941061.1437398-.16905293.60878485-.51843102 1.00668337-1.05905394 1.20710931-1.62163726.1136736-.31907481.10148945-.50950046-.02193352-.77137665-.07814644-.16580942-.56896411-.94142034-.66752023-1.11571652-.53836846-.95210301-.24187303-2.0440902.7287662-3.20227026.24463754-.29190487.67955865-.33019541.97142348-.08552431.29186484.2446711.33015012.67965186.08551258.97155673-.64180213.76580712-.78331492 1.28699612-.58525847 1.63725836.0614501.10867432.59291483.94851743.71454871 1.20659757.27582495.58523942.31213853 1.15278276.07357233 1.82242341-.16591799.4657216-.41699779.90824504-.75064809 1.32761505l.85891338.00012681c.03745991-.06215605.08544566-.11941061.14373981-.16905293.60878486-.51843102 1.00668336-1.05905394 1.20710936-1.62163726.1136736-.31907481.1014894-.50950046-.0219336-.77137665-.0781464-.16580942-.5689641-.94142034-.6675202-1.11571652-.53836846-.95210301-.24187303-2.0440902.7287662-3.20227026.2446375-.29190487.6795586-.33019541.9714235-.08552431zm4.6650511 9.11021215v4.13790576c1.1424944 0 2.0686692-.9263017 2.0686692-2.0689529 0-1.1426511-.9261748-2.06895286-2.0686692-2.06895286z" fill="#555"/></svg>